<?xml version="1.0" encoding="UTF-8" standalone="no"?>
<!DOCTYPE svg PUBLIC "-//W3C//DTD SVG 1.1//EN"
 "http://www.w3.org/Graphics/SVG/1.1/DTD/svg11.dtd">
<!-- Generated by graphviz version 2.43.0 (0)
 -->
<!-- Title: PipelineHealerWorkflow Pages: 1 -->
<svg width="2789pt" height="221pt"
 viewBox="0.00 0.00 2789.00 221.12" xmlns="http://www.w3.org/2000/svg" xmlns:xlink="http://www.w3.org/1999/xlink">
<g id="graph0" class="graph" transform="scale(1 1) rotate(0) translate(4 217.12)">
<title>PipelineHealerWorkflow</title>
<polygon fill="#1e1e1e" stroke="transparent" points="-4,4 -4,-217.12 2785,-217.12 2785,4 -4,4"/>
<!-- GH -->
<g id="node1" class="node">
<title>GH</title>
<polygon fill="#2d2d2d" stroke="#4a4a4a" points="208.5,-156.12 21.5,-156.12 21.5,-118.12 208.5,-118.12 208.5,-156.12"/>
<text text-anchor="middle" x="115" y="-140.93" font-family="Helvetica,sans-Serif" font-size="14.00" fill="white">GitHub Actions</text>
<text text-anchor="middle" x="115" y="-125.92" font-family="Helvetica,sans-Serif" font-size="14.00" fill="white">workflow_run.completed</text>
</g>
<!-- WH -->
<g id="node3" class="node">
<title>WH</title>
<polygon fill="#2d2d2d" stroke="#4a4a4a" points="434,-128.12 293,-128.12 293,-90.12 434,-90.12 434,-128.12"/>
<text text-anchor="middle" x="363.5" y="-112.92" font-family="Helvetica,sans-Serif" font-size="14.00" fill="white">Webhook Ingress</text>
<text text-anchor="middle" x="363.5" y="-97.92" font-family="Helvetica,sans-Serif" font-size="14.00" fill="white">/github + /jenkins</text>
</g>
<!-- GH&#45;&gt;WH -->
<g id="edge1" class="edge">
<title>GH&#45;&gt;WH</title>
<path fill="none" stroke="#888888" d="M208.84,-126.58C233.2,-123.81 259.25,-120.85 282.85,-118.17"/>
<polygon fill="#888888" stroke="#888888" points="283.27,-121.65 292.81,-117.04 282.48,-114.69 283.27,-121.65"/>
</g>
<!-- JN -->
<g id="node2" class="node">
<title>JN</title>
<polygon fill="#2d2d2d" stroke="#4a4a4a" points="230,-100.12 0,-100.12 0,-62.12 230,-62.12 230,-100.12"/>
<text text-anchor="middle" x="115" y="-84.92" font-family="Helvetica,sans-Serif" font-size="14.00" fill="white">Jenkins Bridge</text>
<text text-anchor="middle" x="115" y="-69.92" font-family="Helvetica,sans-Serif" font-size="14.00" fill="white">signed POST /webhook/jenkins</text>
</g>
<!-- JN&#45;&gt;WH -->
<g id="edge2" class="edge">
<title>JN&#45;&gt;WH</title>
<path fill="none" stroke="#888888" d="M230.23,-94.1C247.96,-96.11 265.94,-98.16 282.69,-100.06"/>
<polygon fill="#888888" stroke="#888888" points="282.62,-103.57 292.95,-101.22 283.41,-96.62 282.62,-103.57"/>
</g>
<!-- WF -->
<g id="node4" class="node">
<title>WF</title>
<polygon fill="#2d2d2d" stroke="#4a4a4a" points="676,-127.12 497,-127.12 497,-91.12 676,-91.12 676,-127.12"/>
<text text-anchor="middle" x="586.5" y="-105.42" font-family="Helvetica,sans-Serif" font-size="14.00" fill="white">PipelineHealerWorkflow</text>
</g>
<!-- WH&#45;&gt;WF -->
<g id="edge3" class="edge">
<title>WH&#45;&gt;WF</title>
<path fill="none" stroke="#888888" d="M434.12,-109.12C450.73,-109.12 468.77,-109.12 486.41,-109.12"/>
<polygon fill="#888888" stroke="#888888" points="486.74,-112.63 496.74,-109.12 486.74,-105.63 486.74,-112.63"/>
</g>
<!-- OR -->
<g id="node5" class="node">
<title>OR</title>
<polygon fill="#2d2d2d" stroke="#4a4a4a" points="862,-127.12 712,-127.12 712,-91.12 862,-91.12 862,-127.12"/>
<text text-anchor="middle" x="787" y="-105.42" font-family="Helvetica,sans-Serif" font-size="14.00" fill="white">Orchestrator Agent</text>
</g>
<!-- WF&#45;&gt;OR -->
<g id="edge4" class="edge">
<title>WF&#45;&gt;OR</title>
<path fill="none" stroke="#888888" d="M676.01,-109.12C684.54,-109.12 693.17,-109.12 701.65,-109.12"/>
<polygon fill="#888888" stroke="#888888" points="701.91,-112.63 711.91,-109.12 701.91,-105.63 701.91,-112.63"/>
</g>
<!-- LA -->
<g id="node6" class="node">
<title>LA</title>
<polygon fill="#2d2d2d" stroke="#4a4a4a" points="1299.5,-160.12 1147.5,-160.12 1147.5,-124.12 1299.5,-124.12 1299.5,-160.12"/>
<text text-anchor="middle" x="1223.5" y="-138.43" font-family="Helvetica,sans-Serif" font-size="14.00" fill="white">Log Analyzer Agent</text>
</g>
<!-- OR&#45;&gt;LA -->
<g id="edge5" class="edge">
<title>OR&#45;&gt;LA</title>
<path fill="none" stroke="#888888" d="M862.2,-114.76C938.44,-120.55 1056.99,-129.55 1137.09,-135.64"/>
<polygon fill="#888888" stroke="#888888" points="1136.91,-139.13 1147.15,-136.4 1137.44,-132.15 1136.91,-139.13"/>
</g>
<!-- ADP -->
<g id="node16" class="node">
<title>ADP</title>
<polygon fill="#2d2d2d" stroke="#4a4a4a" points="1056.5,-108.12 937.5,-108.12 937.5,-70.12 1056.5,-70.12 1056.5,-108.12"/>
<text text-anchor="middle" x="997" y="-92.92" font-family="Helvetica,sans-Serif" font-size="14.00" fill="white">GHAW Adapter</text>
<text text-anchor="middle" x="997" y="-77.92" font-family="Helvetica,sans-Serif" font-size="14.00" fill="white">passive mode</text>
</g>
<!-- OR&#45;&gt;ADP -->
<g id="edge7" class="edge">
<title>OR&#45;&gt;ADP</title>
<path fill="none" stroke="#888888" d="M862.21,-101.99C883.37,-99.96 906.32,-97.75 927.14,-95.75"/>
<polygon fill="#888888" stroke="#888888" points="927.55,-99.22 937.17,-94.78 926.88,-92.25 927.55,-99.22"/>
</g>
<!-- ST -->
<g id="node20" class="node">
<title>ST</title>
<path fill="#2d2d2d" stroke="#4a4a4a" d="M1096,-47.6C1096,-50.24 1051.63,-52.38 997,-52.38 942.37,-52.38 898,-50.24 898,-47.6 898,-47.6 898,-4.65 898,-4.65 898,-2.01 942.37,0.13 997,0.13 1051.63,0.13 1096,-2.01 1096,-4.65 1096,-4.65 1096,-47.6 1096,-47.6"/>
<path fill="none" stroke="#4a4a4a" d="M1096,-47.6C1096,-44.97 1051.63,-42.83 997,-42.83 942.37,-42.83 898,-44.97 898,-47.6"/>
<text text-anchor="middle" x="997" y="-29.93" font-family="Helvetica,sans-Serif" font-size="14.00" fill="white">Cosmos DB / PostgreSQL /</text>
<text text-anchor="middle" x="997" y="-14.93" font-family="Helvetica,sans-Serif" font-size="14.00" fill="white">In&#45;Memory Storage</text>
</g>
<!-- OR&#45;&gt;ST -->
<g id="edge19" class="edge">
<title>OR&#45;&gt;ST</title>
<path fill="none" stroke="#888888" d="M841.03,-91.08C848.16,-88.28 855.32,-85.26 862,-82.12 878.77,-74.25 881.21,-68.94 898,-61.12 902.33,-59.11 906.81,-57.14 911.36,-55.22"/>
<polygon fill="#888888" stroke="#888888" points="912.85,-58.4 920.78,-51.37 910.2,-51.92 912.85,-58.4"/>
</g>
<!-- DG -->
<g id="node7" class="node">
<title>DG</title>
<polygon fill="#2d2d2d" stroke="#4a4a4a" points="1674,-132.12 1544,-132.12 1544,-96.12 1674,-96.12 1674,-132.12"/>
<text text-anchor="middle" x="1609" y="-110.42" font-family="Helvetica,sans-Serif" font-size="14.00" fill="white">Diagnosis Agent</text>
</g>
<!-- LA&#45;&gt;DG -->
<g id="edge6" class="edge">
<title>LA&#45;&gt;DG</title>
<path fill="none" stroke="#888888" d="M1299.81,-136.63C1367.55,-131.68 1466.5,-124.46 1533.88,-119.54"/>
<polygon fill="#888888" stroke="#888888" points="1534.28,-123.02 1544,-118.8 1533.77,-116.04 1534.28,-123.02"/>
</g>
<!-- RM -->
<g id="node8" class="node">
<title>RM</title>
<polygon fill="#2d2d2d" stroke="#4a4a4a" points="1859,-132.12 1710,-132.12 1710,-96.12 1859,-96.12 1859,-132.12"/>
<text text-anchor="middle" x="1784.5" y="-110.42" font-family="Helvetica,sans-Serif" font-size="14.00" fill="white">Remediation Agent</text>
</g>
<!-- DG&#45;&gt;RM -->
<g id="edge11" class="edge">
<title>DG&#45;&gt;RM</title>
<path fill="none" stroke="#888888" d="M1674.11,-114.12C1682.51,-114.12 1691.21,-114.12 1699.86,-114.12"/>
<polygon fill="#888888" stroke="#888888" points="1699.99,-117.63 1709.99,-114.12 1699.99,-110.63 1699.99,-117.63"/>
</g>
<!-- GT -->
<g id="node9" class="node">
<title>GT</title>
<polygon fill="#2d2d2d" stroke="#4a4a4a" points="2083,-132.12 1895,-132.12 1895,-96.12 2083,-96.12 2083,-132.12"/>
<text text-anchor="middle" x="1989" y="-110.42" font-family="Helvetica,sans-Serif" font-size="14.00" fill="white">Provider Tools / Adapters</text>
</g>
<!-- RM&#45;&gt;GT -->
<g id="edge12" class="edge">
<title>RM&#45;&gt;GT</title>
<path fill="none" stroke="#888888" d="M1859.18,-114.12C1867.47,-114.12 1876.03,-114.12 1884.61,-114.12"/>
<polygon fill="#888888" stroke="#888888" points="1884.67,-117.63 1894.67,-114.12 1884.67,-110.63 1884.67,-117.63"/>
</g>
<!-- PR -->
<g id="node10" class="node">
<title>PR</title>
<polygon fill="#2d2d2d" stroke="#4a4a4a" points="2231.5,-213.12 2147.5,-213.12 2147.5,-177.12 2231.5,-177.12 2231.5,-213.12"/>
<text text-anchor="middle" x="2189.5" y="-191.43" font-family="Helvetica,sans-Serif" font-size="14.00" fill="white">Create PR</text>
</g>
<!-- GT&#45;&gt;PR -->
<g id="edge13" class="edge">
<title>GT&#45;&gt;PR</title>
<path fill="none" stroke="#888888" d="M2032.3,-132.16C2057.43,-142.79 2089.96,-156.41 2119,-168.12 2124.99,-170.54 2131.28,-173.04 2137.53,-175.5"/>
<polygon fill="#888888" stroke="#888888" points="2136.68,-178.92 2147.27,-179.31 2139.23,-172.41 2136.68,-178.92"/>
</g>
<!-- IS -->
<g id="node11" class="node">
<title>IS</title>
<polygon fill="#2d2d2d" stroke="#4a4a4a" points="2241,-159.12 2138,-159.12 2138,-123.12 2241,-123.12 2241,-159.12"/>
<text text-anchor="middle" x="2189.5" y="-137.43" font-family="Helvetica,sans-Serif" font-size="14.00" fill="white">Create Issue</text>
</g>
<!-- GT&#45;&gt;IS -->
<g id="edge14" class="edge">
<title>GT&#45;&gt;IS</title>
<path fill="none" stroke="#888888" d="M2083.15,-126.79C2098.3,-128.86 2113.65,-130.94 2127.77,-132.86"/>
<polygon fill="#888888" stroke="#888888" points="2127.43,-136.35 2137.81,-134.23 2128.37,-129.41 2127.43,-136.35"/>
</g>
<!-- RR -->
<g id="node12" class="node">
<title>RR</title>
<polygon fill="#2d2d2d" stroke="#4a4a4a" points="2260,-105.12 2119,-105.12 2119,-69.12 2260,-69.12 2260,-105.12"/>
<text text-anchor="middle" x="2189.5" y="-83.42" font-family="Helvetica,sans-Serif" font-size="14.00" fill="white">Re&#45;run Failed Jobs</text>
</g>
<!-- GT&#45;&gt;RR -->
<g id="edge15" class="edge">
<title>GT&#45;&gt;RR</title>
<path fill="none" stroke="#888888" d="M2083.15,-101.46C2091.67,-100.3 2100.25,-99.13 2108.64,-97.99"/>
<polygon fill="#888888" stroke="#888888" points="2109.33,-101.43 2118.76,-96.61 2108.38,-94.49 2109.33,-101.43"/>
</g>
<!-- HO -->
<g id="node13" class="node">
<title>HO</title>
<polygon fill="#2d2d2d" stroke="#4a4a4a" points="2253.5,-51.12 2125.5,-51.12 2125.5,-13.12 2253.5,-13.12 2253.5,-51.12"/>
<text text-anchor="middle" x="2189.5" y="-35.92" font-family="Helvetica,sans-Serif" font-size="14.00" fill="white">Assign&#45;to&#45;Agent</text>
<text text-anchor="middle" x="2189.5" y="-20.93" font-family="Helvetica,sans-Serif" font-size="14.00" fill="white">Handoff</text>
</g>
<!-- GT&#45;&gt;HO -->
<g id="edge16" class="edge">
<title>GT&#45;&gt;HO</title>
<path fill="none" stroke="#888888" d="M2032.65,-96.1C2057.75,-85.54 2090.14,-71.98 2119,-60.12 2123.1,-58.44 2127.35,-56.71 2131.62,-54.97"/>
<polygon fill="#888888" stroke="#888888" points="2133.03,-58.17 2140.99,-51.17 2130.4,-51.68 2133.03,-58.17"/>
</g>
<!-- GW -->
<g id="node14" class="node">
<title>GW</title>
<polygon fill="#2d2d2d" stroke="#4a4a4a" points="2463,-51.12 2296,-51.12 2296,-13.12 2463,-13.12 2463,-51.12"/>
<text text-anchor="middle" x="2379.5" y="-35.92" font-family="Helvetica,sans-Serif" font-size="14.00" fill="white">Outbound Integration</text>
<text text-anchor="middle" x="2379.5" y="-20.93" font-family="Helvetica,sans-Serif" font-size="14.00" fill="white">Gateway / Receiver</text>
</g>
<!-- HO&#45;&gt;GW -->
<g id="edge17" class="edge">
<title>HO&#45;&gt;GW</title>
<path fill="none" stroke="#888888" d="M2253.62,-32.12C2263.89,-32.12 2274.71,-32.12 2285.51,-32.12"/>
<polygon fill="#888888" stroke="#888888" points="2285.84,-35.63 2295.84,-32.12 2285.84,-28.63 2285.84,-35.63"/>
</g>
<!-- NT -->
<g id="node15" class="node">
<title>NT</title>
<polygon fill="#2d2d2d" stroke="#4a4a4a" points="2781,-51.12 2499,-51.12 2499,-13.12 2781,-13.12 2781,-51.12"/>
<text text-anchor="middle" x="2640" y="-35.92" font-family="Helvetica,sans-Serif" font-size="14.00" fill="white">Notification Sinks</text>
<text text-anchor="middle" x="2640" y="-20.93" font-family="Helvetica,sans-Serif" font-size="14.00" fill="white">webhook / Slack / Teams / Rocket.Chat</text>
</g>
<!-- GW&#45;&gt;NT -->
<g id="edge18" class="edge">
<title>GW&#45;&gt;NT</title>
<path fill="none" stroke="#888888" d="M2463,-32.12C2471.29,-32.12 2479.87,-32.12 2488.58,-32.12"/>
<polygon fill="#888888" stroke="#888888" points="2488.85,-35.63 2498.85,-32.12 2488.85,-28.63 2488.85,-35.63"/>
</g>
<!-- CD -->
<g id="node17" class="node">
<title>CD</title>
<polygon fill="#2d2d2d" stroke="#4a4a4a" points="1315,-106.12 1132,-106.12 1132,-68.12 1315,-68.12 1315,-106.12"/>
<text text-anchor="middle" x="1223.5" y="-90.92" font-family="Helvetica,sans-Serif" font-size="14.00" fill="white">ci&#45;doctor</text>
<text text-anchor="middle" x="1223.5" y="-75.92" font-family="Helvetica,sans-Serif" font-size="14.00" fill="white">issue/comment findings</text>
</g>
<!-- ADP&#45;&gt;CD -->
<g id="edge8" class="edge">
<title>ADP&#45;&gt;CD</title>
<path fill="none" stroke="#888888" d="M1056.69,-88.6C1076.63,-88.42 1099.52,-88.22 1121.79,-88.02"/>
<polygon fill="#888888" stroke="#888888" points="1122,-91.52 1131.97,-87.93 1121.94,-84.52 1122,-91.52"/>
</g>
<!-- EXT -->
<g id="node18" class="node">
<title>EXT</title>
<polygon fill="#2d2d2d" stroke="#4a4a4a" points="1508,-110.12 1351,-110.12 1351,-72.12 1508,-72.12 1508,-110.12"/>
<text text-anchor="middle" x="1429.5" y="-94.92" font-family="Helvetica,sans-Serif" font-size="14.00" fill="white">External diagnostics</text>
<text text-anchor="middle" x="1429.5" y="-79.92" font-family="Helvetica,sans-Serif" font-size="14.00" fill="white">context</text>
</g>
<!-- CD&#45;&gt;EXT -->
<g id="edge9" class="edge">
<title>CD&#45;&gt;EXT</title>
<path fill="none" stroke="#888888" d="M1315.17,-88.9C1323.64,-89.07 1332.22,-89.24 1340.66,-89.4"/>
<polygon fill="#888888" stroke="#888888" points="1340.82,-92.91 1350.89,-89.6 1340.96,-85.91 1340.82,-92.91"/>
</g>
<!-- EXT&#45;&gt;DG -->
<g id="edge10" class="edge">
<title>EXT&#45;&gt;DG</title>
<path fill="none" stroke="#888888" d="M1508.1,-101.18C1516.58,-102.28 1525.21,-103.4 1533.66,-104.49"/>
<polygon fill="#888888" stroke="#888888" points="1533.49,-108 1543.86,-105.81 1534.39,-101.06 1533.49,-108"/>
</g>
<!-- BF -->
<g id="node19" class="node">
<title>BF</title>
<polygon fill="#2d2d2d" stroke="#4a4a4a" points="845.5,-73.12 728.5,-73.12 728.5,-35.12 845.5,-35.12 845.5,-73.12"/>
<text text-anchor="middle" x="787" y="-57.92" font-family="Helvetica,sans-Serif" font-size="14.00" fill="white">Backfill Sweep</text>
<text text-anchor="middle" x="787" y="-42.92" font-family="Helvetica,sans-Serif" font-size="14.00" fill="white">every 10 min</text>
</g>
<!-- BF&#45;&gt;ADP -->
<g id="edge20" class="edge">
<title>BF&#45;&gt;ADP</title>
<path fill="none" stroke="#888888" d="M845.66,-63.83C870.93,-68.08 900.78,-73.1 927.2,-77.55"/>
<polygon fill="#888888" stroke="#888888" points="926.7,-81.01 937.14,-79.22 927.86,-74.11 926.7,-81.01"/>
</g>
<!-- BF&#45;&gt;ST -->
<g id="edge21" class="edge">
<title>BF&#45;&gt;ST</title>
<path fill="none" stroke="#888888" d="M845.66,-46.36C858.85,-44.59 873.29,-42.64 887.83,-40.69"/>
<polygon fill="#888888" stroke="#888888" points="888.46,-44.13 897.91,-39.33 887.53,-37.2 888.46,-44.13"/>
</g>
<!-- UI -->
<g id="node21" class="node">
<title>UI</title>
<polygon fill="#2d2d2d" stroke="#4a4a4a" points="461,-48.12 266,-48.12 266,-12.12 461,-12.12 461,-48.12"/>
<text text-anchor="middle" x="363.5" y="-26.43" font-family="Helvetica,sans-Serif" font-size="14.00" fill="white">Settings + Control Center</text>
</g>
<!-- API -->
<g id="node22" class="node">
<title>API</title>
<polygon fill="#2d2d2d" stroke="#4a4a4a" points="641,-48.12 532,-48.12 532,-12.12 641,-12.12 641,-48.12"/>
<text text-anchor="middle" x="586.5" y="-26.43" font-family="Helvetica,sans-Serif" font-size="14.00" fill="white">/api/settings*</text>
</g>
<!-- UI&#45;&gt;API -->
<g id="edge22" class="edge">
<title>UI&#45;&gt;API</title>
<path fill="none" stroke="#888888" d="M461.11,-30.12C481.59,-30.12 502.72,-30.12 521.62,-30.12"/>
<polygon fill="#888888" stroke="#888888" points="521.88,-33.63 531.88,-30.12 521.88,-26.63 521.88,-33.63"/>
</g>
<!-- API&#45;&gt;OR -->
<g id="edge23" class="edge">
<title>API&#45;&gt;OR</title>
<path fill="none" stroke="#888888" d="M629.37,-48.18C653.44,-58.41 684.29,-71.29 712,-82.12 716.46,-83.87 721.09,-85.64 725.75,-87.4"/>
<polygon fill="#888888" stroke="#888888" points="724.74,-90.76 735.33,-90.99 727.19,-84.2 724.74,-90.76"/>
</g>
<!-- API&#45;&gt;ST -->
<g id="edge24" class="edge">
<title>API&#45;&gt;ST</title>
<path fill="none" stroke="#888888" d="M641.11,-28.03C663.08,-27.26 688.76,-26.5 712,-26.12 770.01,-25.19 834.69,-25.12 887.66,-25.31"/>
<polygon fill="#888888" stroke="#888888" points="887.73,-28.81 897.75,-25.35 887.76,-21.81 887.73,-28.81"/>
</g>
</g>
</svg>
